<svg width="22" height="25" viewBox="0 0 22 25" fill="none" xmlns="http://www.w3.org/2000/svg">
<path d="M19.6991 2.22513C16.6334 -0.74171 11.6411 -0.74171 8.57871 2.22513L0.0846455 10.439C0.0293202 10.4926 3.00869e-05 10.565 3.00869e-05 10.6406C3.00869e-05 10.7162 0.0293202 10.7886 0.0846455 10.8422L1.28553 12.0044C1.34042 12.0572 1.41473 12.0869 1.49219 12.0869C1.56965 12.0869 1.64395 12.0572 1.69884 12.0044L10.1929 3.79043C11.2473 2.76999 12.65 2.20938 14.1405 2.20938C15.6311 2.20938 17.0337 2.76999 18.0849 3.79043C19.1393 4.81088 19.7186 6.16831 19.7186 7.60764C19.7186 9.05012 19.1393 10.4044 18.0849 11.4248L9.42812 19.7994L8.02546 21.1568C6.71392 22.4261 4.58227 22.4261 3.27073 21.1568C2.63612 20.5427 2.2879 19.727 2.2879 18.8577C2.2879 17.9884 2.63612 17.1727 3.27073 16.5585L11.8592 8.25014C12.0772 8.04227 12.3636 7.92574 12.6695 7.92574H12.6728C12.9787 7.92574 13.2618 8.04227 13.4766 8.25014C13.6947 8.46116 13.8118 8.73831 13.8118 9.03437C13.8118 9.32727 13.6914 9.60443 13.4766 9.8123L6.45682 16.5995C6.4015 16.653 6.37221 16.7255 6.37221 16.8011C6.37221 16.8766 6.4015 16.9491 6.45682 17.0026L7.65771 18.1648C7.7126 18.2177 7.78691 18.2474 7.86436 18.2474C7.94182 18.2474 8.01613 18.2177 8.07102 18.1648L15.0876 11.3745C15.7352 10.7477 16.0899 9.91623 16.0899 9.03122C16.0899 8.14621 15.732 7.31159 15.0876 6.68798C13.75 5.39353 11.576 5.39668 10.2385 6.68798L9.40534 7.49741L1.65328 14.9964C1.12714 15.5026 0.710077 16.1048 0.42628 16.7682C0.142483 17.4316 -0.0024007 18.1429 3.00869e-05 18.8608C3.00869e-05 20.3191 0.589082 21.6891 1.65328 22.719C2.75653 23.7835 4.2015 24.3158 5.64647 24.3158C7.09144 24.3158 8.5364 23.7835 9.6364 22.719L19.6991 12.987C21.1799 11.5508 22 9.63907 22 7.60764C22.0032 5.57306 21.1831 3.6613 19.6991 2.22513Z" fill="currentColor"/>
</svg>
