<svg width="14" height="14" viewBox="0 0 14 14" fill="none" xmlns="http://www.w3.org/2000/svg">
<path d="M7.00017 13.6666C5.23157 13.6682 3.53495 12.9664 2.28436 11.7158C1.03377 10.4652 0.331908 8.76856 0.333499 6.99997V6.86663C0.388024 4.19478 2.03203 1.8134 4.51107 0.815338C6.99011 -0.182726 9.82555 0.395226 11.7162 2.28397C13.6245 4.19069 14.1956 7.05952 13.1631 9.55172C12.1305 12.0439 9.6978 13.6682 7.00017 13.6666ZM7.00017 7.93997L8.72683 9.66663L9.66683 8.72663L7.94017 6.99997L9.66683 5.2733L8.72683 4.3333L7.00017 6.05997L5.2735 4.3333L4.3335 5.2733L6.06017 6.99997L4.3335 8.72663L5.2735 9.66663L7.00017 7.94063V7.93997Z" fill="currentColor"/>
</svg>
