<svg width="26" height="28" viewBox="0 0 26 28" fill="none" xmlns="http://www.w3.org/2000/svg">
<path d="M24.6006 22.42C23.969 20.924 23.0524 19.565 21.9019 18.4189C20.755 17.2695 19.3962 16.3531 17.9008 15.7203C17.8874 15.7136 17.874 15.7102 17.8606 15.7035C19.9466 14.1968 21.3026 11.7426 21.3026 8.97362C21.3026 4.38656 17.5861 0.670044 12.999 0.670044C8.41198 0.670044 4.69547 4.38656 4.69547 8.97362C4.69547 11.7426 6.05149 14.1968 8.13743 15.7069C8.12404 15.7136 8.11064 15.7169 8.09725 15.7236C6.59725 16.3564 5.25127 17.2638 4.09614 18.4223C2.94673 19.5693 2.0303 20.928 1.39747 22.4234C0.775786 23.8874 0.440495 25.457 0.409752 27.0473C0.408858 27.083 0.415126 27.1186 0.428186 27.1518C0.441247 27.1851 0.460835 27.2154 0.485798 27.241C0.51076 27.2666 0.540591 27.2869 0.573534 27.3008C0.606476 27.3147 0.641863 27.3218 0.677609 27.3218H2.68654C2.83386 27.3218 2.95105 27.2046 2.95439 27.0607C3.02136 24.4759 4.0593 22.0551 5.89413 20.2203C7.79256 18.3218 10.3138 17.2772 12.999 17.2772C15.6843 17.2772 18.2055 18.3218 20.1039 20.2203C21.9388 22.0551 22.9767 24.4759 23.0437 27.0607C23.047 27.208 23.1642 27.3218 23.3115 27.3218H25.3205C25.3562 27.3218 25.3916 27.3147 25.4245 27.3008C25.4575 27.2869 25.4873 27.2666 25.5123 27.241C25.5372 27.2154 25.5568 27.1851 25.5699 27.1518C25.5829 27.1186 25.5892 27.083 25.5883 27.0473C25.5548 25.4468 25.2234 23.8899 24.6006 22.42ZM12.999 14.7325C11.4622 14.7325 10.0158 14.1332 8.92761 13.045C7.83944 11.9569 7.24011 10.5104 7.24011 8.97362C7.24011 7.43679 7.83944 5.99036 8.92761 4.90219C10.0158 3.81402 11.4622 3.21469 12.999 3.21469C14.5359 3.21469 15.9823 3.81402 17.0705 4.90219C18.1586 5.99036 18.758 7.43679 18.758 8.97362C18.758 10.5104 18.1586 11.9569 17.0705 13.045C15.9823 14.1332 14.5359 14.7325 12.999 14.7325Z" fill="currentColor"/>
</svg>
